<?xml version="1.0" encoding="UTF-8"?>
<svg width="132.29mm" height="132.29mm" version="1.1" viewBox="0 0 132.29 132.29" xmlns="http://www.w3.org/2000/svg">
<g transform="translate(760.11 262.13)">
<g transform="matrix(.32995 0 0 .32995 -1569.5 -746.64)">
<path d="m2527.5 1648.9-5.4158 42.94-32.108-12.766 24.758 26.692-18.182 25.145 24.371-9.671 10.445 45.26 4.6421-46.421 25.145 9.6711-17.021-20.89 19.342-23.21-24.371 5.4158z" fill="#fff"/>
<path d="m2605.9 1591.6 41.756 74.572-71.964 10.24 67.446 10.541-12.041 80.204 33.124-77.494 53.104 83.523-28.709-82.017 68.958-11.65-65.043-20.275 9.3366-68.669-36.142 59.031z" fill="#fff"/>
<path d="m2541.3 1592.4 97.07 37.057 19.878-128.3 30.72 124.99 78.289-10.866-62.025 58.452 50.694 71.748-71.175-29.583-15.866 140.72-27.504-143.43-74.505 38.919 55.23-81.988z" fill="#ec448c"/>
<g fill="#fff">
<path d="m2571 1502.3-21.957-9.0857 18.928 21.2-12.871 19.686 17.414-7.5713 5.3 36.343 5.3-37.1 18.171 6.8143-12.114-16.657 12.872-18.929-17.414 5.3-8.3285-32.557z"/>
<path d="m2738.6 1533.6-20.817-21.561 24.535 11.152 7.4348-37.174 8.1782 35.687 23.048-2.9739-14.87 17.1 12.639 19.33-20.074-8.1782-6.6913 37.917-6.6913-36.43-21.561 7.4347z"/>
<path d="m2770.7 1714.1 9.5452 46.362 23.181-5.4544-16.363 22.5 14.318 24.545-20.454-8.1817-6.818 47.726-9.5452-48.408-23.181 12.272 17.727-27.272-23.863-29.318 28.636 13.636z"/>
<path d="m2608.1 1771.3 7.8017 34.914 19.15-2.6857-12.766 19.471 9.9294 17.457-15.603-8.0571-4.2554 36.928-7.8017-36.257-16.313 8.7285 11.348-20.143-18.44-23.5 21.987 9.4001z"/>
</g>
</g>
</g>
</svg>
